<svg width="48" height="48" viewBox="0 0 48 48" fill="none" xmlns="http://www.w3.org/2000/svg">
<path fill-rule="evenodd" clip-rule="evenodd" d="M24 40C32.8366 40 40 32.8366 40 24C40 15.1634 32.8366 8 24 8C15.1634 8 8 15.1634 8 24C8 32.8366 15.1634 40 24 40ZM24 44C35.0457 44 44 35.0457 44 24C44 12.9543 35.0457 4 24 4C12.9543 4 4 12.9543 4 24C4 35.0457 12.9543 44 24 44Z" fill="#FCFCFD"/>
<path d="M11.9999 40.0015C16.8577 36.3526 19.9999 30.5433 19.9999 24C19.9999 17.4567 16.8577 11.6474 11.9999 7.99854C10.9081 8.8186 9.903 9.7478 9.00073 10.7699C13.2258 13.65 15.9999 18.501 15.9999 24C15.9999 29.499 13.2258 34.35 9.00074 37.2301C9.903 38.2522 10.9081 39.1814 11.9999 40.0015Z" fill="#FCFCFD"/>
<path d="M35.9999 7.99854C31.1421 11.6474 27.9999 17.4567 27.9999 24C27.9999 30.5433 31.1421 36.3526 35.9999 40.0015C37.0917 39.1814 38.0968 38.2522 38.9991 37.2301C34.774 34.35 31.9999 29.499 31.9999 24C31.9999 18.501 34.774 13.65 38.9991 10.7699C38.0968 9.7478 37.0917 8.8186 35.9999 7.99854Z" fill="#FCFCFD"/>
</svg>
