<svg width="20" height="20" viewBox="0 0 20 20" fill="none" xmlns="http://www.w3.org/2000/svg">
<path d="M14.1666 3.33333C13.7063 3.33333 13.3333 3.70643 13.3333 4.16666C13.3333 4.62689 13.7063 4.99999 14.1666 4.99999H17.4999C17.9602 4.99999 18.3333 4.62689 18.3333 4.16666C18.3333 3.70643 17.9602 3.33333 17.4999 3.33333H14.1666Z" fill="#777E91"/>
<path fill-rule="evenodd" clip-rule="evenodd" d="M11.6667 10.8333C11.6667 8.53217 13.5322 6.66667 15.8334 6.66667C18.1346 6.66667 20.0001 8.53217 20.0001 10.8333V11.6667C20.0001 12.1269 19.627 12.5 19.1667 12.5H13.3334C13.3334 13.8808 14.4527 15 15.8334 15C16.4147 15 16.9495 14.8017 17.3741 14.469C17.5958 14.2952 17.8578 14.1667 18.1397 14.1667C18.8537 14.1667 19.3107 14.9043 18.8111 15.4146C18.0547 16.1872 17.0001 16.6667 15.8334 16.6667C13.5322 16.6667 11.6667 14.8012 11.6667 12.5V10.8333ZM15.8334 8.33334C14.4527 8.33334 13.3334 9.45259 13.3334 10.8333H18.3334C18.3334 9.45259 17.2142 8.33334 15.8334 8.33334Z" fill="#777E91"/>
<path fill-rule="evenodd" clip-rule="evenodd" d="M1.66667 4.99999V8.33333H5.83333C6.75381 8.33333 7.5 7.58714 7.5 6.66666C7.5 5.74619 6.75381 4.99999 5.83333 4.99999H1.66667ZM8.16648 9.04733C8.78375 8.44233 9.16667 7.59922 9.16667 6.66666C9.16667 4.82571 7.67428 3.33333 5.83333 3.33333H1.33333C0.596953 3.33333 0 3.93029 0 4.66666V15.2381C0 16.0271 0.639594 16.6667 1.42858 16.6667H5.83333C8.13452 16.6667 10 14.8012 10 12.5C10 11.0632 9.27283 9.79641 8.16648 9.04733ZM1.66667 9.99999V15H5.83333C7.21404 15 8.33333 13.8807 8.33333 12.5C8.33333 11.1192 7.21404 9.99999 5.83333 9.99999H1.66667Z" fill="#777E91"/>
</svg>
