<svg width="29" height="32" viewBox="0 0 29 32" fill="none" xmlns="http://www.w3.org/2000/svg">
<path d="M26.9469 8.02899L12.8626 15.156C12.5404 15.319 12.3373 15.6495 12.3373 16.0106V30.4251C12.3373 31.1432 13.0981 31.6059 13.7357 31.2756L27.82 23.9789C28.1378 23.8143 28.3372 23.4863 28.3372 23.1285V8.88363C28.3372 8.16959 27.5841 7.7066 26.9469 8.02899Z" fill="#FF9A51"/>
<path opacity="0.7" d="M10.3435 21.5162V16.3971C10.3435 15.3703 10.9125 14.4334 11.8112 13.9824L16.0299 11.8616V7.70566C16.0299 7.55532 15.945 7.41772 15.8125 7.35487L0.535948 0.0359554C0.490892 0.0145893 0.442007 0.00247765 0.392187 0.000335693C0.342367 -0.00180626 0.292624 0.00606728 0.2459 0.023489C0.199177 0.0409107 0.156422 0.0675278 0.120167 0.101765C0.0839122 0.136002 0.0548931 0.177166 0.0348268 0.222816C0.0116515 0.274345 -0.000222474 0.330242 3.15625e-06 0.386744V16.3776C3.15625e-06 16.5288 0.0849389 16.6664 0.219137 16.7292L10.3435 21.5162Z" fill="#D8611E"/>
</svg>
