<svg width="20" height="20" viewBox="0 0 20 20" fill="none" xmlns="http://www.w3.org/2000/svg">
<path fill-rule="evenodd" clip-rule="evenodd" d="M10.0001 16.6667C13.682 16.6667 16.6667 13.6819 16.6667 10C16.6667 6.31811 13.682 3.33334 10.0001 3.33334C6.31818 3.33334 3.33341 6.31811 3.33341 10C3.33341 13.6819 6.31818 16.6667 10.0001 16.6667ZM10.0001 18.3333C14.6024 18.3333 18.3334 14.6023 18.3334 10C18.3334 5.39763 14.6024 1.66667 10.0001 1.66667C5.39771 1.66667 1.66675 5.39763 1.66675 10C1.66675 14.6023 5.39771 18.3333 10.0001 18.3333Z" fill="#777E91"/>
<path d="M12.8952 17.8168C12.5993 15.7083 12.1063 13.7947 11.4124 11.9858C9.71383 12.8093 7.814 14.2483 5.2017 16.8142C4.74465 16.4917 4.32149 16.1244 3.93861 15.7188C6.68225 13.0131 8.77775 11.3954 10.7635 10.4487C10.5087 9.89642 10.2341 9.352 9.93925 8.81259C7.60135 9.54942 4.93565 9.93767 1.66675 9.99317C1.66721 9.42117 1.72531 8.86259 1.83556 8.32298C4.72051 8.26117 7.05426 7.92726 9.07416 7.3338C8.1366 5.82939 7.03771 4.34442 5.77483 2.8158C6.26726 2.52557 6.79213 2.28452 7.3427 2.09941C8.61708 3.66571 9.73366 5.20514 10.6898 6.77946C12.4862 6.06942 14.0785 5.11111 15.6679 3.89103C16.0765 4.27023 16.4469 4.68991 16.7728 5.14369C15.1197 6.42244 13.4338 7.45885 11.5244 8.24015C11.8054 8.76492 12.069 9.2955 12.3152 9.834C14.2041 9.23559 16.0633 9.17375 18.2923 9.16742C18.3195 9.44125 18.3334 9.71909 18.3334 10.0001C18.3334 10.2817 18.3194 10.56 18.2922 10.8344C16.1386 10.8421 14.5414 10.9028 12.9642 11.3776C13.6414 13.1405 14.1424 15.0043 14.4641 17.0382C13.9736 17.3499 13.4482 17.6118 12.8952 17.8168Z" fill="#777E91"/>
</svg>
