<svg width="20" height="20" viewBox="0 0 20 20" fill="none" xmlns="http://www.w3.org/2000/svg">
<path fill-rule="evenodd" clip-rule="evenodd" d="M10.0001 16.6667C13.682 16.6667 16.6667 13.6819 16.6667 10C16.6667 6.31811 13.682 3.33334 10.0001 3.33334C6.31818 3.33334 3.33341 6.31811 3.33341 10C3.33341 13.6819 6.31818 16.6667 10.0001 16.6667ZM10.0001 18.3333C14.6024 18.3333 18.3334 14.6023 18.3334 10C18.3334 5.39763 14.6024 1.66667 10.0001 1.66667C5.39771 1.66667 1.66675 5.39763 1.66675 10C1.66675 14.6023 5.39771 18.3333 10.0001 18.3333Z" fill="#777E91"/>
<path d="M10.0001 8.33333C10.0001 7.8731 10.3732 7.49999 10.8334 7.49999H11.6667C12.127 7.49999 12.5001 7.1269 12.5001 6.66666C12.5001 6.20643 12.127 5.83333 11.6667 5.83333H10.8334C9.45266 5.83333 8.33341 6.95262 8.33341 8.33333V10H7.50008C7.03985 10 6.66675 10.3731 6.66675 10.8333C6.66675 11.2936 7.03984 11.6667 7.50008 11.6667H8.33341V16.6667C8.33341 17.1269 8.7065 17.5 9.16675 17.5C9.627 17.5 10.0001 17.1269 10.0001 16.6667V11.6667H11.6667C12.127 11.6667 12.5001 11.2936 12.5001 10.8333C12.5001 10.3731 12.127 10 11.6667 10H10.0001V8.33333Z" fill="#777E91"/>
</svg>
