<svg width="20" height="20" viewBox="0 0 20 20" fill="none" xmlns="http://www.w3.org/2000/svg">
<path fill-rule="evenodd" clip-rule="evenodd" d="M13.3334 3.33334H6.66675C4.8258 3.33334 3.33341 4.82572 3.33341 6.66667V13.3333C3.33341 15.1743 4.8258 16.6667 6.66675 16.6667H13.3334C15.1743 16.6667 16.6667 15.1743 16.6667 13.3333V6.66667C16.6667 4.82572 15.1743 3.33334 13.3334 3.33334ZM6.66675 1.66667C3.90532 1.66667 1.66675 3.90525 1.66675 6.66667V13.3333C1.66675 16.0948 3.90532 18.3333 6.66675 18.3333H13.3334C16.0948 18.3333 18.3334 16.0948 18.3334 13.3333V6.66667C18.3334 3.90525 16.0948 1.66667 13.3334 1.66667H6.66675Z" fill="#777E91"/>
<path d="M14.1666 6.66667C14.6268 6.66667 14.9999 6.29357 14.9999 5.83333C14.9999 5.3731 14.6268 5 14.1666 5C13.7063 5 13.3333 5.3731 13.3333 5.83333C13.3333 6.29357 13.7063 6.66667 14.1666 6.66667Z" fill="#777E91"/>
<path fill-rule="evenodd" clip-rule="evenodd" d="M14.1666 9.99999C14.1666 12.3012 12.3011 14.1667 9.99992 14.1667C7.69874 14.1667 5.83325 12.3012 5.83325 9.99999C5.83325 7.69881 7.69874 5.83333 9.99992 5.83333C12.3011 5.83333 14.1666 7.69881 14.1666 9.99999ZM12.4999 9.99999C12.4999 11.3807 11.3807 12.5 9.99992 12.5C8.61917 12.5 7.49992 11.3807 7.49992 9.99999C7.49992 8.61924 8.61917 7.49999 9.99992 7.49999C11.3807 7.49999 12.4999 8.61924 12.4999 9.99999Z" fill="#777E91"/>
</svg>
