<svg width="136" height="32" viewBox="0 0 136 32" fill="none" xmlns="http://www.w3.org/2000/svg">
<path d="M26.9469 8.02921L12.8626 15.1562C12.5404 15.3193 12.3373 15.6497 12.3373 16.0108V30.4254C12.3373 31.1434 13.0981 31.6061 13.7357 31.2758L27.82 23.9791C28.1378 23.8145 28.3372 23.4865 28.3372 23.1287V8.88385C28.3372 8.1698 27.5841 7.70681 26.9469 8.02921Z" fill="#FF9A51"/>
<path opacity="0.7" d="M10.3435 21.5161V16.397C10.3435 15.3702 10.9125 14.4333 11.8112 13.9823L16.0299 11.8615V7.70556C16.0299 7.55522 15.945 7.41763 15.8125 7.35477L0.535948 0.0358562C0.490892 0.0144901 0.442007 0.00237846 0.392187 0.000236511C0.342367 -0.00190544 0.292624 0.00596809 0.2459 0.0233898C0.199177 0.0408115 0.156422 0.0674286 0.120167 0.101665C0.0839122 0.135902 0.0548931 0.177067 0.0348268 0.222717C0.0116515 0.274246 -0.000222474 0.330143 3.15625e-06 0.386644V16.3775C3.15625e-06 16.5287 0.0849389 16.6663 0.219137 16.7291L10.3435 21.5161Z" fill="#D8611E"/>
<path d="M47.3293 15.264C48.3533 15.472 49.1693 15.96 49.7773 16.728C50.4013 17.48 50.7133 18.368 50.7133 19.392C50.7133 20.816 50.2333 21.944 49.2733 22.776C48.3293 23.592 46.9533 24 45.1453 24H37.8733V7.056H45.0013C46.7133 7.056 48.0253 7.432 48.9373 8.184C49.8653 8.936 50.3293 9.992 50.3293 11.352C50.3293 12.408 50.0493 13.272 49.4893 13.944C48.9453 14.616 48.2253 15.056 47.3293 15.264ZM41.2573 14.16H44.3053C45.1533 14.16 45.7933 13.976 46.2253 13.608C46.6733 13.224 46.8973 12.68 46.8973 11.976C46.8973 11.272 46.6813 10.728 46.2493 10.344C45.8173 9.96 45.1533 9.768 44.2573 9.768H41.2573V14.16ZM44.4733 21.24C45.3693 21.24 46.0573 21.048 46.5373 20.664C47.0173 20.264 47.2573 19.688 47.2573 18.936C47.2573 18.184 47.0093 17.608 46.5133 17.208C46.0333 16.792 45.3453 16.584 44.4493 16.584H41.2573V21.24H44.4733ZM52.2202 6.888C52.2202 6.344 52.4122 5.904 52.7962 5.568C53.1802 5.216 53.6842 5.04 54.3082 5.04C54.9322 5.04 55.4362 5.216 55.8202 5.568C56.2042 5.904 56.3962 6.344 56.3962 6.888C56.3962 7.416 56.2042 7.856 55.8202 8.208C55.4362 8.544 54.9322 8.712 54.3082 8.712C53.6842 8.712 53.1802 8.544 52.7962 8.208C52.4122 7.856 52.2202 7.416 52.2202 6.888ZM55.9882 10.704V24H52.6042V10.704H55.9882ZM61.3055 21.168H67.8335V24H57.6095V21.312L63.7295 13.512H57.7535V10.704H67.5935V13.368L61.3055 21.168ZM72.1927 21.168H78.7207V24H68.4967V21.312L74.6167 13.512H68.6407V10.704H78.4807V13.368L72.1927 21.168ZM86.3199 10.536C88.0319 10.536 89.4559 11 90.5919 11.928C91.7439 12.856 92.4639 14.12 92.7519 15.72H89.1759C89.0319 15.016 88.7039 14.464 88.1919 14.064C87.6799 13.648 87.0319 13.44 86.2479 13.44C85.3519 13.44 84.5999 13.776 83.9919 14.448C83.3999 15.104 83.1039 16.072 83.1039 17.352C83.1039 18.632 83.3999 19.608 83.9919 20.28C84.5999 20.936 85.3519 21.264 86.2479 21.264C87.0319 21.264 87.6799 21.064 88.1919 20.664C88.7039 20.248 89.0319 19.688 89.1759 18.984H92.7519C92.4639 20.584 91.7439 21.848 90.5919 22.776C89.4559 23.704 88.0319 24.168 86.3199 24.168C85.0239 24.168 83.8719 23.896 82.8639 23.352C81.8559 22.792 81.0719 22 80.5119 20.976C79.9519 19.952 79.6719 18.744 79.6719 17.352C79.6719 15.96 79.9519 14.752 80.5119 13.728C81.0719 12.688 81.8559 11.896 82.8639 11.352C83.8719 10.808 85.0239 10.536 86.3199 10.536ZM99.8844 10.536C101.004 10.536 101.964 10.8 102.764 11.328C103.564 11.856 104.132 12.568 104.468 13.464V10.704H107.828V24H104.468V21.216C104.132 22.112 103.564 22.832 102.764 23.376C101.964 23.904 101.004 24.168 99.8844 24.168C98.7644 24.168 97.7564 23.896 96.8604 23.352C95.9644 22.808 95.2604 22.024 94.7484 21C94.2524 19.96 94.0044 18.744 94.0044 17.352C94.0044 15.96 94.2524 14.752 94.7484 13.728C95.2604 12.688 95.9644 11.896 96.8604 11.352C97.7564 10.808 98.7644 10.536 99.8844 10.536ZM100.94 13.488C99.8844 13.488 99.0364 13.832 98.3964 14.52C97.7564 15.208 97.4364 16.152 97.4364 17.352C97.4364 18.552 97.7564 19.496 98.3964 20.184C99.0364 20.856 99.8844 21.192 100.94 21.192C101.964 21.192 102.804 20.848 103.46 20.16C104.132 19.456 104.468 18.52 104.468 17.352C104.468 16.168 104.132 15.232 103.46 14.544C102.804 13.84 101.964 13.488 100.94 13.488ZM113.799 13.248C114.295 12.4 114.951 11.736 115.767 11.256C116.583 10.76 117.495 10.512 118.503 10.512V14.136H117.519C115.039 14.136 113.799 15.288 113.799 17.592V24H110.415V10.704H113.799V13.248ZM125.104 10.536C126.224 10.536 127.176 10.8 127.96 11.328C128.76 11.856 129.336 12.568 129.688 13.464V6.24H133.048V24H129.688V21.216C129.336 22.112 128.76 22.832 127.96 23.376C127.176 23.904 126.224 24.168 125.104 24.168C123.984 24.168 122.976 23.896 122.08 23.352C121.184 22.808 120.48 22.024 119.968 21C119.472 19.96 119.224 18.744 119.224 17.352C119.224 15.96 119.472 14.752 119.968 13.728C120.48 12.688 121.184 11.896 122.08 11.352C122.976 10.808 123.984 10.536 125.104 10.536ZM126.16 13.488C125.104 13.488 124.256 13.832 123.616 14.52C122.976 15.208 122.656 16.152 122.656 17.352C122.656 18.552 122.976 19.496 123.616 20.184C124.256 20.856 125.104 21.192 126.16 21.192C127.184 21.192 128.024 20.848 128.68 20.16C129.352 19.456 129.688 18.52 129.688 17.352C129.688 16.168 129.352 15.232 128.68 14.544C128.024 13.84 127.184 13.488 126.16 13.488Z" fill="#F4F5F6"/>
</svg>
