<svg width="203" height="198" viewBox="0 0 203 198" fill="none" xmlns="http://www.w3.org/2000/svg">
  <g filter="url(#filter0_f)">
    <rect x="65.4604" y="87.8603" width="71.8866" height="43.9307" rx="21.9653" fill="#A4A9B3" fill-opacity="0.3"/>
  </g>
  <path fill-rule="evenodd" clip-rule="evenodd" d="M41.5 59.9055C41.5 107.83 53.4811 119.811 101.405 119.811C149.33 119.811 161.311 107.83 161.311 59.9055C161.311 11.9811 149.33 0 101.405 0C53.4811 0 41.5 11.9811 41.5 59.9055Z" fill="white"/>
  <mask id="mask0" style="mask-type:alpha" maskUnits="userSpaceOnUse" x="41" y="0" width="121" height="120">
    <path fill-rule="evenodd" clip-rule="evenodd" d="M41.5 59.9055C41.5 107.83 53.4811 119.811 101.405 119.811C149.33 119.811 161.311 107.83 161.311 59.9055C161.311 11.9811 149.33 0 101.405 0C53.4811 0 41.5 11.9811 41.5 59.9055Z" fill="white"/>
  </mask>
  <g mask="url(#mask0)">
    <path fill-rule="evenodd" clip-rule="evenodd" d="M196.131 280.168V226.907L146.685 207.254L171.683 142.622C172.91 139.45 174.419 136.394 176.192 133.492C187.063 115.69 206.802 105.264 227.634 106.319L303.861 110.181C319.502 110.974 334.138 118.125 344.375 129.976C357.868 145.596 361.93 167.259 355.014 186.705L340.25 228.221L321.987 301.135C321.987 301.135 288.376 310.624 248.956 310.624C209.535 310.624 196.131 280.168 196.131 280.168Z" fill="url(#paint0_linear)"/>
    <mask id="mask1" style="mask-type:alpha" maskUnits="userSpaceOnUse" x="146" y="106" width="213" height="205">
      <path fill-rule="evenodd" clip-rule="evenodd" d="M196.131 280.168V226.907L146.685 207.254L171.683 142.622C172.91 139.45 174.419 136.394 176.192 133.492C187.063 115.69 206.802 105.264 227.634 106.319L303.861 110.181C319.502 110.974 334.138 118.125 344.375 129.976C357.868 145.596 361.93 167.259 355.014 186.705L340.25 228.221L321.987 301.135C321.987 301.135 288.376 310.624 248.956 310.624C209.535 310.624 196.131 280.168 196.131 280.168Z" fill="white"/>
    </mask>
    <g mask="url(#mask1)">
    </g>
    <path fill-rule="evenodd" clip-rule="evenodd" d="M80.8894 34.6105L82.1634 32.5774C83.5472 30.369 85.978 29.037 88.5841 29.0592L113.779 29.2733C115.839 29.2908 117.624 30.7049 118.113 32.7063L130.794 84.6268C131.355 86.9212 130.802 89.3456 129.302 91.1702L127.367 93.5246L80.8894 34.6105Z" fill="#728BB7"/>
    <path fill-rule="evenodd" clip-rule="evenodd" d="M83.732 32.5204C81.7592 32.5334 80.3356 34.4141 80.8585 36.3164L96.8722 94.5728L125.238 94.4686C127.18 94.4614 128.604 92.6391 128.141 90.7529L114.37 34.6227C114.039 33.2735 112.825 32.3279 111.436 32.3371L83.732 32.5204Z" fill="url(#paint1_linear)"/>
    <path fill-rule="evenodd" clip-rule="evenodd" d="M101.848 64.4446C105.502 65.1548 109.039 62.7686 109.749 59.115C110.46 55.4613 108.073 51.9237 104.42 51.2135C100.766 50.5033 97.2285 52.8894 96.5183 56.5431C95.8081 60.1968 98.1942 63.7344 101.848 64.4446Z" fill="white"/>
    <path fill-rule="evenodd" clip-rule="evenodd" d="M90.1657 50.6425C91.868 50.5556 93.0382 48.8957 92.5481 47.2631L90.3384 39.9026C90.0252 38.8591 89.0711 38.1395 87.9817 38.1252C86.3325 38.1035 85.1164 39.6595 85.536 41.2546L87.4908 48.6869C87.8072 49.8897 88.9236 50.7059 90.1657 50.6425Z" fill="white"/>
    <path fill-rule="evenodd" clip-rule="evenodd" d="M87.1872 41.7602C87.9991 41.918 88.7852 41.3878 88.9431 40.5758C89.1009 39.7639 88.5706 38.9778 87.7587 38.8199C86.9468 38.6621 86.1606 39.1924 86.0028 40.0043C85.845 40.8162 86.3752 41.6024 87.1872 41.7602Z" fill="#949BA9"/>
    <path fill-rule="evenodd" clip-rule="evenodd" d="M88.9826 48.2128C89.7945 48.3706 90.5806 47.8404 90.7385 47.0284C90.8963 46.2165 90.366 45.4304 89.5541 45.2725C88.7422 45.1147 87.956 45.645 87.7982 46.4569C87.6404 47.2688 88.1707 48.055 88.9826 48.2128Z" fill="#949BA9"/>
    <path fill-rule="evenodd" clip-rule="evenodd" d="M94.9725 111.699L84.1206 80.4615C83.0565 77.3984 82.8219 74.1083 83.4407 70.9252C83.9916 68.0909 85.2027 65.4263 86.9758 63.1474L89.1143 60.399C90.6686 58.4014 92.6887 56.8151 94.998 55.779L106.201 50.7523C107.593 50.1278 109.229 50.7217 109.896 52.0936C110.504 53.343 110.113 54.8488 108.973 55.6441L105.381 58.152L109.911 56.888C111.316 56.496 112.8 57.1641 113.438 58.4757C114.106 59.8476 113.645 61.502 112.365 62.3316L109.627 64.1056L111.784 63.7471C113.439 63.4722 115.017 64.5494 115.364 66.1909C115.673 67.6564 114.903 69.136 113.524 69.7222L109.366 71.4904L112.954 72.1877C113.9 72.3716 114.65 73.0928 114.871 74.0306C115.156 75.2433 114.486 76.4772 113.313 76.8974L104.848 79.9299C99.0519 82.0064 95.6266 87.9897 96.7708 94.0392L96.872 94.5743L118.247 94.5389L116.487 103.593L181.211 207.742C184.86 213.613 187.008 220.291 187.466 227.189L187.927 234.123C188.594 244.165 183.446 253.732 174.721 258.746C165.931 263.797 155.124 263.996 146.173 259.236C139.089 255.468 133.849 248.974 131.662 241.254L94.9725 111.699Z" fill="#E6B28C"/>
    <path d="M93.2381 65.2668C93.2381 65.2668 97.707 61.5214 106.95 57.2219" stroke="#333333" stroke-width="1.50035"/>
    <path d="M93.8207 71.5914C93.8207 71.5914 101.962 66.1896 109.626 64.1054" stroke="#333333" stroke-width="1.50035"/>
    <path d="M96.7928 78.2227C96.7928 78.2227 101.996 72.2321 110.245 71.319" stroke="#333333" stroke-width="1.50035"/>
    <path d="M102.193 81.593C102.193 81.593 95.4536 85.1118 96.8718 94.5736" stroke="#333333" stroke-width="1.50035"/>
  </g>
  <defs>
    <filter id="filter0_f" x="0.206451" y="22.6063" width="202.395" height="174.439" filterUnits="userSpaceOnUse" color-interpolation-filters="sRGB">
      <feFlood flood-opacity="0" result="BackgroundImageFix"/>
      <feBlend mode="normal" in="SourceGraphic" in2="BackgroundImageFix" result="shape"/>
      <feGaussianBlur stdDeviation="32.627" result="effect1_foregroundBlur"/>
    </filter>
    <linearGradient id="paint0_linear" x1="152.858" y1="93.919" x2="160.531" y2="314.748" gradientUnits="userSpaceOnUse">
      <stop stop-color="#35C3FF"/>
      <stop offset="1" stop-color="#0C69BB"/>
    </linearGradient>
    <linearGradient id="paint1_linear" x1="81.1016" y1="25.9644" x2="68.8252" y2="89.121" gradientUnits="userSpaceOnUse">
      <stop stop-color="#CFE1FA"/>
      <stop offset="1" stop-color="#A2BFF2"/>
    </linearGradient>
  </defs>
</svg>
