<svg width="251" height="130" viewBox="0 0 251 130" fill="none" xmlns="http://www.w3.org/2000/svg">
<g opacity="0.1">
<path d="M-78.5446 72.4268L-70.0672 70.2914L-61.5639 68.3406L-53.0363 66.5625L-44.4865 64.9427L-35.916 63.4698L-27.326 62.1363L-18.7167 60.9394L-10.088 59.881L-1.43895 58.9671L7.23149 58.2055L15.9229 57.5928L24.6278 57.0764L33.3348 56.5751L42.0285 55.9793L50.6948 55.1878L59.3221 54.1197L67.9032 52.7221L76.4351 50.975L84.92 48.8931L93.3647 46.5248L101.78 43.9497L110.182 41.2734L118.586 38.62L127.017 36.1515L135.488 33.9756L144.02 32.2237L152.62 30.9639L161.295 30.2342L170.045 30.0381L178.865 30.3434L187.747 31.0827L196.675 32.1571L205.633 33.4421L214.601 34.7972L223.559 36.0798L232.489 37.164L241.377 37.9498L250.211 38.3548L258.983 38.315L267.686 37.7881L276.319 36.7572L284.882 35.2318L293.381 33.2477L301.823 30.8643L310.221 28.1602L318.586 25.2297L326.935 22.177L335.281 19.1086L343.639 16.1252L352.021 13.313L360.437 10.7361L368.89 8.43067" stroke="#FF9A51" stroke-width="0.882787"/>
<path d="M-77.6763 78.605L-69.1975 76.4793L-60.6865 74.5833L-52.1458 72.8991L-43.5776 71.4094L-34.9844 70.0985L-26.3678 68.9537L-17.7292 67.9659L-9.06915 67.1301L-0.387912 66.4453L8.31481 65.9134L17.0391 65.5353L25.7739 65.2311L34.511 64.9439L43.2332 64.5509L51.9248 63.9395L60.5727 63.0175L69.1682 61.7227L77.7074 60.0271L86.1914 57.9396L94.6269 55.5057L103.025 52.8049L111.4 49.9449L119.772 47.0544L128.16 44.2866L136.584 41.7717L145.061 39.6344L153.603 37.9574L162.217 36.7963L170.907 36.174L179.671 36.0786L188.503 36.4618L197.39 37.2412L206.317 38.304L215.264 39.5148L224.212 40.7276L233.141 41.8017L242.033 42.6223L250.879 43.1053L259.668 43.1867L268.394 42.8246L277.056 42.0023L285.655 40.7284L294.194 39.0363L302.683 36.9817L311.131 34.6391L319.551 32.0962L327.957 29.4481L336.361 26.7937L344.775 24.21L353.212 21.7819L361.678 19.5654L370.177 17.5902" stroke="#FF9A51" stroke-width="0.882787"/>
<path d="M-76.9694 83.6344L-68.4799 81.5854L-59.9526 79.8053L-51.3904 78.2733L-42.7964 76.9682L-34.1733 75.8695L-25.5239 74.9584L-16.8504 74.2187L-8.15446 73.6383L0.5627 73.2091L9.30047 72.9266L18.0584 72.7873L26.8258 72.7161L35.5938 72.6483L44.3457 72.4661L53.0641 72.0459L61.7346 71.2849L70.3471 70.1107L78.8964 68.4871L87.3829 66.4168L95.8124 63.9413L104.196 61.1386L112.549 58.1172L120.889 55.0081L129.238 51.9595L137.616 49.1114L146.038 46.5865L154.52 44.481L163.07 42.8671L171.696 41.7871L180.398 41.249L189.172 41.2246L198.009 41.6496L206.896 42.4265L215.814 43.4304L224.745 44.5182L233.666 45.5417L242.56 46.3662L251.411 46.8948L260.213 47.0652L268.958 46.839L277.646 46.2019L286.278 45.1636L294.858 43.7566L303.393 42.0331L311.893 40.0619L320.37 37.9226L328.835 35.7005L337.301 33.4802L345.777 31.3389L354.274 29.3402L362.797 27.5286L371.349 25.9287" stroke="#FF9A51" stroke-width="0.882787"/>
<path d="M-76.1828 89.2319L-67.6754 87.3107L-59.1248 85.6961L-50.5346 84.3636L-41.9084 83.2873L-33.2498 82.441L-24.5626 81.7992L-15.8498 81.3386L-7.11435 81.0397L1.64169 80.8871L10.4168 80.8705L19.2099 80.9817L28.0122 81.158L36.8119 81.3163L45.595 81.356L54.3425 81.1427L63.0384 80.5626L71.6712 79.5328L80.2344 78.0082L88.7274 75.9845L97.1555 73.4983L105.529 70.6249L113.864 67.4722L122.177 64.172L130.49 60.8689L138.823 57.7039L147.193 54.802L155.615 52.2718L164.101 50.2014L172.661 48.651L181.297 47.6481L190.01 47.1843L198.791 47.215L207.631 47.6601L216.514 48.4068L225.419 49.3163L234.326 50.2367L243.214 51.0221L252.067 51.5583L260.875 51.7794L269.635 51.6528L278.344 51.1688L287.005 50.34L295.622 49.1991L304.203 47.7959L312.755 46.1936L321.289 44.4643L329.817 42.6831L338.347 40.9226L346.889 39.2473L355.45 37.7077L364.034 36.3357L372.644 35.1411" stroke="#FF9A51" stroke-width="0.882787"/>
<path d="M-75.4348 94.5544L-66.905 92.7918L-58.3261 91.3791L-49.7021 90.2867L-41.0377 89.4825L-32.3374 88.9333L-23.6059 88.606L-14.8476 88.4694L-6.06642 88.4959L2.73457 88.6632L11.553 88.9547L20.3872 89.3583L29.231 89.8302L38.0681 90.2541L46.8884 90.5591L55.6712 90.5972L64.3986 90.2404L73.057 89.3933L81.6386 87.9996L90.1416 86.0467L98.5704 83.566L106.935 80.63L115.251 77.3463L123.537 73.8476L131.813 70.2778L140.098 66.7772L148.412 63.4782L156.772 60.5036L165.191 57.9576L173.682 55.919L182.251 54.4349L190.9 53.5173L199.624 53.1409L208.415 53.2389L217.259 53.7068L226.135 54.4113L235.024 55.2016L243.902 55.9221L252.755 56.4566L261.569 56.7137L270.34 56.6681L279.068 56.3167L287.755 55.6766L296.407 54.7825L305.03 53.6838L313.633 52.4405L322.225 51.1181L330.814 49.7833L339.411 48.4977L348.022 47.3134L356.653 46.2674L365.305 45.3777L373.979 44.6411" stroke="#FF9A51" stroke-width="0.882787"/>
<path d="M-74.7693 99.2896L-66.2088 97.7457L-57.5959 96.5745L-48.9355 95.7419L-40.2326 95.2108L-31.4928 94.9427L-22.7216 94.8984L-13.9241 95.0406L-5.10518 95.3357L3.73135 95.7559L12.5825 96.2802L21.4463 96.894L30.3209 97.5853L39.1831 98.1886L48.0311 98.6902L56.8428 98.9334L65.5991 98.7831L74.2856 98.1352L82.8929 96.9247L91.4182 95.1302L99.8646 92.7745L108.241 89.9216L116.562 86.6708L124.844 83.1456L133.106 79.479L141.367 75.8039L149.646 72.2543L157.96 68.9583L166.326 66.0295L174.756 63.5596L183.26 61.6126L191.841 60.2187L200.499 59.367L209.226 59.0059L218.009 59.0487L226.833 59.3797L235.679 59.8627L244.525 60.3533L253.355 60.7284L262.156 60.8965L270.924 60.8245L279.658 60.5173L288.362 59.9969L297.042 59.2997L305.703 58.4731L314.354 57.571L323.002 56.6503L331.655 55.7656L340.32 54.9646L349.002 54.2839L357.704 53.7443L366.425 53.3484L375.165 53.0783" stroke="#FF9A51" stroke-width="0.882787"/>
<path d="M-74.1153 103.943L-65.5225 102.629L-56.8749 101.705L-48.1781 101.131L-39.4378 100.866L-30.6602 100.867L-21.8516 101.089L-13.0179 101.489L-4.16447 102.029L4.70413 102.677L13.5846 103.41L22.4746 104.211L31.3727 105.069L40.2624 105.868L49.1367 106.557L57.9775 107.007L66.7648 107.077L75.483 106.655L84.1217 105.667L92.6763 104.082L101.149 101.912L109.547 99.2109L117.882 96.0656L126.171 92.5864L134.429 88.8935L142.676 85.1153L150.929 81.3851L159.207 77.8336L167.528 74.5814L175.904 71.7315L184.349 69.3606L192.866 67.5086L201.456 66.1774L210.115 65.3336L218.833 64.9112L227.597 64.8154L236.391 64.9286L245.195 65.1199L253.994 65.2696L262.775 65.2976L271.531 65.1473L280.265 64.8321L288.979 64.38L297.679 63.8298L306.372 63.2275L315.064 62.6225L323.763 62.0634L332.474 61.5939L341.203 61.2485L349.953 61.0488L358.723 61.0002L367.513 61.0896L376.318 61.2847" stroke="#FF9A51" stroke-width="0.882787"/>
<path d="M-73.5157 108.21L-64.8902 107.128L-56.2074 106.455L-47.4733 106.146L-38.6946 106.155L-29.8781 106.432L-21.0309 106.928L-12.1596 107.596L-3.27025 108.392L5.63222 109.281L14.5442 110.239L23.4634 111.247L32.3886 112.298L41.3098 113.321L50.2154 114.232L59.0912 114.932L67.9162 115.27L76.6732 115.124L85.3502 114.409L93.9412 113.083L102.446 111.144L110.871 108.634L119.226 105.627L127.524 102.216L135.781 98.5145L144.015 94.6478L152.245 90.7499L160.489 86.9555L168.766 83.3933L177.091 80.1757L185.476 77.3849L193.929 75.0702L202.45 73.2488L211.039 71.9068L219.689 70.9992L228.39 70.4524L237.127 70.1678L245.885 70.0285L254.646 69.9104L263.405 69.7768L272.146 69.5214L280.874 69.1675L289.593 68.7504L298.309 68.3128L307.028 67.9016L315.758 67.5634L324.504 67.3407L333.272 67.2682L342.063 67.3686L350.88 67.6499L359.721 68.1024L368.583 68.6974L377.457 69.3873" stroke="#FF9A51" stroke-width="0.882787"/>
<path d="M-72.9013 112.581L-64.2435 111.729L-55.5269 111.296L-46.7583 111.233L-37.9448 111.489L-29.0941 112.01L-20.2136 112.744L-11.3105 113.637L-2.39113 114.647L6.53931 115.735L15.4772 116.877L24.4207 118.058L33.3688 119.272L42.3175 120.49L51.2522 121.609L60.1629 122.557L69.0277 123.178L77.8281 123.341L86.5503 122.948L95.1863 121.942L103.734 120.308L112.197 118.071L120.583 115.283L128.903 112.025L137.17 108.399L145.404 104.527L153.621 100.541L161.842 96.5792L170.084 92.7745L178.365 89.2387L186.695 86.0578L195.084 83.2922L203.536 80.976L212.052 79.1157L220.629 77.6893L229.26 76.6463L237.934 75.9093L246.637 75.3792L255.349 74.9162L264.078 74.5693L272.798 74.1563L281.512 73.7109L290.229 73.2759L298.953 72.8991L307.693 72.6288L316.454 72.5097L325.241 72.579L334.058 72.8629L342.907 73.3732L351.788 74.1049L360.696 75.0337L369.625 76.116L378.568 77.2891" stroke="#FF9A51" stroke-width="0.882787"/>
<path d="M-72.1641 117.826L-63.4769 117.184L-54.7319 116.953L-45.9362 117.082L-37.0973 117.519L-28.223 118.208L-19.3211 119.094L-10.3987 120.125L-1.46225 121.256L7.48338 122.452L16.435 123.691L25.3911 124.962L34.3516 126.265L43.3171 127.602L52.2728 128.871L61.2123 130.023L70.1135 130.904L78.9569 131.373L87.7274 131.324L96.415 130.684L105.015 129.42L113.527 127.535L121.957 125.061L130.313 122.061L138.608 118.628L146.858 114.874L155.081 110.927L163.295 106.922L171.52 102.986L179.768 99.2248L188.055 95.7286L196.388 92.5682L204.776 89.794L213.221 87.4332L221.725 85.4871L230.284 83.9295L238.889 82.7064L247.531 81.7396L256.195 80.9329L264.877 80.2513L273.566 79.6256L282.26 79.0302L290.965 78.5153L299.689 78.1332L308.438 77.9337L317.22 77.9596L326.037 78.2435L334.893 78.8039L343.788 79.6426L352.721 80.7429L361.684 82.0676L370.671 83.5596L379.671 85.1433" stroke="#FF9A51" stroke-width="0.882787"/>
<path d="M-71.6727 121.323L-62.9563 120.889L-54.1829 120.859L-45.3601 121.182L-36.4957 121.8L-27.5976 122.659L-18.6736 123.701L-9.73101 124.876L-0.775894 126.14L8.18715 127.46L17.1554 128.818L26.1283 130.208L35.1067 131.638L44.0921 133.117L53.0778 134.599L62.0538 136.012L71.0001 137.212L79.8956 138.053L88.7232 138.409L97.47 138.191L106.128 137.342L114.694 135.84L123.171 133.7L131.566 130.973L139.889 127.74L148.155 124.107L156.383 120.197L164.591 116.14L172.794 112.055L181.008 108.047L189.247 104.214L197.522 100.64L205.844 97.3959L214.218 94.5297L222.65 92.0651L231.137 89.9976L239.674 88.2931L248.255 86.8901L256.866 85.705L265.5 84.6901L274.157 83.8289L282.825 83.05L291.513 82.4146L300.23 81.984L308.984 81.8142L317.78 81.951L326.625 82.4256L335.518 83.2509L344.46 84.4194L353.446 85.9014L362.468 87.6455L371.518 89.5806L380.581 91.6165" stroke="#FF9A51" stroke-width="0.882787"/>
<path d="M-71.0583 125.694L-62.3196 125.418L-53.528 125.519L-44.691 125.942L-35.8165 126.633L-26.912 127.536L-17.985 128.6L-9.04201 129.778L-0.0885332 131.03L8.87181 132.331L17.8374 133.67L26.8087 135.049L35.7879 136.484L44.7775 137.994L53.7763 139.568L62.7746 141.139L71.7537 142.574L80.6921 143.719L89.5709 144.44L98.3745 144.626L107.092 144.202L115.719 143.126L124.253 141.396L132.7 139.045L141.069 136.14L149.374 132.775L157.629 129.06L165.851 125.109L174.055 121.027L182.256 116.922L190.467 112.896L198.704 109.045L206.976 105.454L215.295 102.187L223.665 99.2866L232.088 96.7675L240.563 94.6156L249.084 92.7879L257.64 91.2173L266.224 89.8376L274.842 88.7031L283.477 87.6909L292.139 86.8708L300.838 86.311L309.582 86.073L318.378 86.2056L327.231 86.7403L336.142 87.6878L345.109 89.0349L354.126 90.7434L363.186 92.7502L372.275 94.9702L381.38 97.3015" stroke="#FF9A51" stroke-width="0.882787"/>
<path d="M-70.3213 130.939L-61.5632 130.801L-52.7568 131.007L-43.9097 131.502L-35.0293 132.234L-26.1231 133.15L-17.1978 134.202L-8.25924 135.348L0.68814 136.557L9.64186 137.811L18.6016 139.108L27.5693 140.461L36.5483 141.895L45.5425 143.438L54.5536 145.1L63.574 146.828L72.586 148.497L81.5673 149.947L90.4971 151.031L99.3579 151.624L108.136 151.631L116.824 150.993L125.419 149.69L133.922 147.738L142.341 145.188L150.687 142.119L158.973 138.626L167.214 134.804L175.423 130.757L183.615 126.592L191.805 122.418L200.01 118.34L208.241 114.453L216.51 110.836L224.825 107.547L233.191 104.619L241.608 102.054L250.073 99.8267L258.577 97.8849L267.109 96.1387L275.688 94.7208L284.287 93.4542L292.919 92.4175L301.594 91.6874L310.321 91.3321L319.109 91.4054L327.962 91.9417L336.881 92.9518L345.865 94.4199L354.907 96.3024L363.997 98.5278L373.122 101L382.266 103.602" stroke="#FF9A51" stroke-width="0.882787"/>
<path d="M-69.5841 136.184L-60.8124 136.143L-51.9984 136.403L-43.1496 136.911L-34.273 137.616L-25.3753 138.471L-16.4626 139.434L-7.53947 140.47L1.39085 141.557L10.3274 142.689L19.2714 143.874L28.2263 145.136L37.1971 146.512L46.1888 148.036L55.204 149.728L64.2379 151.552L73.2735 153.389L82.2888 155.081L91.262 156.474L100.174 157.432L109.01 157.846L117.758 157.641L126.415 156.777L134.978 155.252L143.453 153.1L151.848 150.383L160.175 147.176L168.445 143.562L176.671 139.641L184.869 135.517L193.054 131.301L201.242 127.104L209.446 123.028L217.68 119.162L225.954 115.577L234.274 112.32L242.642 109.409L251.058 106.833L259.515 104.555L268.006 102.518L276.537 100.762L285.099 99.2273L293.696 97.9451L302.34 96.9999L311.043 96.4669L319.812 96.4056L328.652 96.8546L337.567 97.8268L346.552 99.3068L355.602 101.249L364.707 103.577L373.852 106.189L383.019 108.96" stroke="#FF9A51" stroke-width="0.882787"/>
<path d="M-68.847 141.429L-60.0667 141.449L-51.2513 141.719L-42.4078 142.189L-33.5428 142.811L-24.6623 143.545L-15.771 144.355L-6.87232 145.217L2.03212 146.12L10.943 147.07L19.8635 148.087L28.7986 149.209L37.7548 150.48L46.7381 151.945L55.7516 153.624L64.7912 155.489L73.8417 157.432L82.8822 159.303L91.8908 160.948L100.848 162.224L109.735 163.009L118.542 163.213L127.258 162.779L135.882 161.687L144.416 159.952L152.865 157.617L161.238 154.74L169.546 151.397L177.8 147.676L186.016 143.68L194.209 139.517L202.393 135.298L210.585 131.132L218.798 127.114L227.043 123.325L235.328 119.822L243.658 116.637L252.033 113.773L260.45 111.206L268.902 108.89L277.39 106.834L285.914 105.032L294.475 103.49L303.085 102.301L311.757 101.546L320.499 101.292L329.317 101.581L338.214 102.432L347.188 103.831L356.233 105.734L365.338 108.063L374.488 110.715L383.665 113.559" stroke="#FF9A51" stroke-width="0.882787"/>
<path d="M-67.9869 147.549L-59.2029 147.595L-50.392 147.833L-41.5607 148.216L-32.715 148.701L-23.8598 149.255L-14.9985 149.851L-6.13306 150.477L2.73687 151.135L11.6139 151.843L20.5028 152.636L29.4106 153.563L38.3452 154.681L47.3135 156.039L56.3189 157.661L65.3568 159.514L74.4132 161.498L83.469 163.479L92.5034 165.307L101.496 166.836L110.428 167.939L119.286 168.51L128.059 168.478L136.742 167.806L145.335 166.491L153.841 164.559L162.266 162.052L170.619 159.035L178.912 155.586L187.157 151.8L195.37 147.782L203.566 143.641L211.759 139.486L219.965 135.416L228.195 131.52L236.458 127.862L244.761 124.485L253.105 121.403L261.489 118.604L269.908 116.054L278.36 113.734L286.848 111.679L295.373 109.878L303.947 108.43L312.583 107.423L321.291 106.929L330.078 106.998L338.947 107.653L347.898 108.885L356.924 110.652L366.015 112.881L375.156 115.468L384.329 118.285" stroke="#FF9A51" stroke-width="0.882787"/>
<path d="M-67.1269 153.668L-58.3438 153.708L-49.5426 153.877L-40.7296 154.129L-31.9101 154.429L-23.0875 154.749L-14.264 155.077L-5.43955 155.411L3.38807 155.768L12.2235 156.18L21.0737 156.698L29.9474 157.382L38.8539 158.301L47.8012 159.509L56.7926 161.031L65.8225 162.827L74.8768 164.797L83.9385 166.819L92.9884 168.758L102.007 170.47L110.974 171.823L119.876 172.705L128.699 173.031L137.437 172.749L146.087 171.842L154.65 170.319L163.131 168.209L171.536 165.561L179.876 162.443L188.161 158.939L196.405 155.148L204.624 151.174L212.833 147.123L221.044 143.099L229.272 139.189L237.527 135.467L245.815 131.982L254.139 128.758L262.499 125.791L270.893 123.058L279.314 120.525L287.771 118.244L296.261 116.2L304.799 114.494L313.398 113.22L322.068 112.457L330.818 112.26L339.651 112.659L348.568 113.651L357.563 115.2L366.627 117.237L375.745 119.662L384.901 122.354" stroke="#FF9A51" stroke-width="0.882787"/>
<path d="M-66.0211 161.536L-57.2434 161.537L-48.4569 161.602L-39.6674 161.687L-30.8794 161.762L-22.0954 161.808L-13.3159 161.823L-4.5389 161.819L4.24005 161.83L13.0279 161.903L21.8336 162.105L30.6679 162.509L39.5415 163.193L48.4631 164.218L57.4355 165.605L66.4522 167.308L75.4987 169.222L84.5587 171.232L93.6149 173.215L102.649 175.04L111.642 176.575L120.578 177.703L129.444 178.33L138.23 178.396L146.934 177.871L155.554 176.751L164.092 175.047L172.553 172.793L180.944 170.045L189.276 166.877L197.562 163.377L205.815 159.643L214.049 155.779L222.279 151.883L230.517 148.046L238.774 144.344L247.058 140.831L255.373 137.536L263.719 134.467L272.094 131.606L280.495 128.924L288.924 126.446L297.384 124.186L305.888 122.239L314.449 120.701L323.08 119.656L331.788 119.168L340.58 119.27L349.456 119.968L358.411 121.233L367.437 123.003L376.522 125.187L385.648 127.67" stroke="#FF9A51" stroke-width="0.882787"/>
<path d="M-64.9154 169.403L-56.1487 169.327L-47.3823 169.248L-38.6217 169.128L-29.8706 168.94L-21.1303 168.676L-12.3999 168.341L-3.67554 167.963L5.04947 167.589L13.7845 167.287L22.5408 167.137L31.331 167.228L40.167 167.644L49.0578 168.45L58.0055 169.661L67.0021 171.221L76.0336 173.028L85.084 174.97L94.1369 176.929L103.175 178.786L112.182 180.419L121.141 181.711L130.039 182.567L138.866 182.922L147.618 182.738L156.291 181.997L164.885 180.692L173.403 178.844L181.851 176.495L190.236 173.706L198.571 170.555L206.867 167.131L215.138 163.53L223.398 159.847L231.659 156.171L239.931 152.576L248.223 149.12L256.539 145.836L264.881 142.737L273.248 139.813L281.636 137.043L290.045 134.426L298.481 131.997L306.956 129.842L315.483 128.06L324.075 126.739L332.741 125.946L341.487 125.723L350.315 126.083L359.222 127.005L368.201 128.435L377.24 130.294L386.324 132.479" stroke="#FF9A51" stroke-width="0.882787"/>
<path d="M-63.8096 177.271L-55.057 177.095L-46.3134 176.853L-37.584 176.511L-28.8717 176.048L-20.1768 175.46L-11.4967 174.767L-2.82595 174.008L5.84426 173.244L14.5256 172.561L23.2321 172.055L31.9782 171.832L40.7773 171.986L49.6383 172.58L58.562 173.621L67.5393 175.042L76.5564 176.748L85.598 178.627L94.6479 180.565L103.689 182.444L112.707 184.15L121.684 185.572L130.609 186.619L139.472 187.229L148.267 187.352L156.989 186.96L165.636 186.032L174.209 184.574L182.711 182.615L191.149 180.204L199.534 177.409L207.876 174.309L216.187 170.992L224.481 167.549L232.769 164.065L241.061 160.614L249.366 157.252L257.689 154.017L266.032 150.924L274.394 147.97L282.773 145.138L291.169 142.421L299.586 139.854L308.035 137.519L316.531 135.516L325.086 133.935L333.711 132.849L342.412 132.306L351.193 132.327L360.05 132.898L368.98 133.977L377.971 135.496L387.01 137.362" stroke="#FF9A51" stroke-width="0.882787"/>
<path d="M-62.4582 186.887L-53.7293 186.542L-45.0171 186.077L-36.3261 185.462L-27.6581 184.683L-19.0125 183.745L-10.3853 182.675L-1.76954 181.525L6.84511 180.366L15.4719 179.294L24.1263 178.418L32.8244 177.853L41.5801 177.698L50.4019 178.013L59.2887 178.791L68.231 179.964L77.2164 181.444L86.2305 183.127L95.2581 184.907L104.284 186.672L113.291 188.31L122.267 189.72L131.2 190.825L140.083 191.576L148.903 191.881L157.664 191.761L166.356 191.158L174.981 190.068L183.539 188.505L192.035 186.506L200.478 184.126L208.877 181.43L217.242 178.497L225.585 175.406L233.917 172.235L242.247 169.051L250.583 165.909L258.929 162.844L267.289 159.874L275.663 156.998L284.048 154.206L292.444 151.492L300.855 148.884L309.291 146.457L317.766 144.304L326.292 142.511L334.878 141.152L343.533 140.28L352.26 139.92L361.058 140.069L369.924 140.697L378.85 141.75L387.824 143.155" stroke="#FF9A51" stroke-width="0.882787"/>
</g>
</svg>
