<svg width="616" height="176" viewBox="0 0 616 176" fill="none" xmlns="http://www.w3.org/2000/svg">
<rect y="0.600006" width="616" height="175.175" rx="15.4" fill="#F4F5F6"/>
<path fill-rule="evenodd" clip-rule="evenodd" d="M299.338 67.0125C299.338 64.8862 301.061 63.1625 303.188 63.1625H311.218C312.239 63.1625 313.218 63.5681 313.94 64.2901L315.535 65.8849C316.257 66.6069 316.663 67.5861 316.663 68.6072V80.4875C316.663 82.6138 314.939 84.3375 312.813 84.3375H303.188C301.061 84.3375 299.338 82.6138 299.338 80.4875V67.0125ZM314.738 69.9V80.4875C314.738 81.5507 313.876 82.4125 312.813 82.4125H303.188C302.124 82.4125 301.263 81.5507 301.263 80.4875V67.0125C301.263 65.9494 302.124 65.0875 303.188 65.0875H309.925V67.0125C309.925 68.6072 311.218 69.9 312.813 69.9H314.738ZM314.631 67.975C314.536 67.7032 314.381 67.4534 314.174 67.246L312.579 65.6513C312.372 65.444 312.122 65.2888 311.85 65.1943V67.0125C311.85 67.5441 312.281 67.975 312.813 67.975H314.631Z" fill="#777E91"/>
<path d="M307.632 70.9355C307.518 70.9825 307.412 71.0521 307.319 71.1444L304.432 74.0319C304.056 74.4078 304.056 75.0172 304.432 75.3931C304.808 75.769 305.417 75.769 305.793 75.3931L307.038 74.1487V78.5625C307.038 79.0941 307.468 79.525 308 79.525C308.532 79.525 308.963 79.0941 308.963 78.5625V74.1487L310.207 75.3931C310.583 75.769 311.192 75.769 311.568 75.3931C311.944 75.0172 311.944 74.4078 311.568 74.0319L308.681 71.1444C308.397 70.8608 307.98 70.7912 307.632 70.9355Z" fill="#777E91"/>
<path d="M285.288 105.645V108.925H284.237V100.782H286.825C287.756 100.782 288.453 101.002 288.915 101.441C289.377 101.872 289.608 102.465 289.608 103.219C289.608 103.982 289.369 104.578 288.892 105.01C288.415 105.433 287.725 105.645 286.825 105.645H285.288ZM286.732 104.767C287.371 104.767 287.829 104.632 288.107 104.363C288.392 104.093 288.534 103.712 288.534 103.219C288.534 102.711 288.392 102.326 288.107 102.064C287.829 101.795 287.371 101.66 286.732 101.66H285.288V104.767H286.732ZM297.165 108.925H296.114L291.887 102.492V108.925H290.836V100.782H291.887L296.114 107.227V100.782H297.165V108.925ZM302.551 100.701C303.498 100.701 304.292 100.936 304.931 101.406C305.577 101.876 306.012 102.515 306.236 103.323H305.127C304.934 102.83 304.611 102.434 304.157 102.134C303.71 101.833 303.179 101.683 302.563 101.683C302.008 101.683 301.512 101.814 301.073 102.076C300.634 102.33 300.288 102.696 300.033 103.173C299.787 103.65 299.664 104.213 299.664 104.859C299.664 105.522 299.791 106.095 300.045 106.58C300.299 107.058 300.649 107.427 301.096 107.689C301.55 107.943 302.07 108.07 302.655 108.07C303.156 108.07 303.614 107.962 304.03 107.747C304.446 107.531 304.784 107.219 305.046 106.811C305.316 106.396 305.477 105.91 305.531 105.356H302.332V104.571H306.421V105.541C306.351 106.188 306.151 106.773 305.82 107.296C305.489 107.82 305.042 108.236 304.48 108.544C303.918 108.852 303.279 109.006 302.563 109.006C301.777 109.006 301.084 108.833 300.484 108.486C299.883 108.132 299.414 107.643 299.075 107.019C298.744 106.388 298.578 105.668 298.578 104.859C298.578 104.051 298.744 103.335 299.075 102.711C299.414 102.08 299.883 101.587 300.484 101.233C301.084 100.878 301.774 100.701 302.551 100.701ZM308.457 108.151C308.565 108.49 308.619 108.806 308.619 109.098C308.619 109.499 308.519 109.818 308.319 110.057C308.118 110.303 307.818 110.426 307.418 110.426V109.976C307.61 109.976 307.749 109.922 307.833 109.814C307.926 109.714 307.972 109.553 307.972 109.329V109.225H307.383V108.151H308.457ZM313.769 105.645V108.925H312.718V100.782H315.305C316.237 100.782 316.933 101.002 317.395 101.441C317.857 101.872 318.088 102.465 318.088 103.219C318.088 103.982 317.85 104.578 317.372 105.01C316.895 105.433 316.206 105.645 315.305 105.645H313.769ZM315.212 104.767C315.852 104.767 316.31 104.632 316.587 104.363C316.872 104.093 317.014 103.712 317.014 103.219C317.014 102.711 316.872 102.326 316.587 102.064C316.31 101.795 315.852 101.66 315.212 101.66H313.769V104.767H315.212ZM326.177 104.848C326.177 105.672 326.011 106.392 325.68 107.008C325.349 107.616 324.86 108.09 324.213 108.428C323.574 108.759 322.804 108.925 321.903 108.925H319.316V100.782H321.903C322.804 100.782 323.574 100.948 324.213 101.279C324.86 101.602 325.349 102.072 325.68 102.688C326.011 103.296 326.177 104.016 326.177 104.848ZM321.822 107.978C322.885 107.978 323.697 107.705 324.259 107.158C324.821 106.611 325.103 105.841 325.103 104.848C325.103 103.855 324.821 103.085 324.259 102.538C323.705 101.983 322.893 101.706 321.822 101.706H320.367V107.978H321.822ZM332.203 100.782V101.637H328.646V104.455H331.661V105.275H328.646V108.925H327.595V100.782H332.203Z" fill="#777E91"/>
</svg>
